<svg width="321" height="90" viewBox="0 0 321 90" fill="none" xmlns="http://www.w3.org/2000/svg">
<path d="M70.833 89.1337C70.273 89.1747 69.7108 89.1747 69.1509 89.1337C65.5745 88.6757 62.3013 86.889 59.9817 84.1286L43.5715 65.0107L26.1357 45.4621C25.8588 45.1475 25.7061 44.7427 25.7061 44.3236C25.7061 43.9045 25.8588 43.4998 26.1357 43.1852L59.9612 5.15458C62.2758 2.39865 65.5408 0.612369 69.1099 0.149473C70.818 -0.0887478 72.5571 0.0346715 74.2144 0.511729C75.8717 0.988786 77.4103 1.80883 78.7304 2.91869C80.0302 4.04994 81.0779 5.44152 81.8058 7.00335C82.5337 8.56518 82.9256 10.2625 82.956 11.9853C83.0601 15.5845 81.8081 19.0914 79.4483 21.8109L60.8228 43.6365C60.6148 43.911 60.5022 44.2459 60.5022 44.5903C60.5022 44.9347 60.6148 45.2696 60.8228 45.5441L79.4688 67.3697C81.8221 70.0943 83.0795 73.596 82.997 77.1953C82.9552 78.9042 82.5579 80.5857 81.8304 82.1326C81.1029 83.6795 80.0611 85.0578 78.7714 86.1799C76.5665 88.0869 73.7482 89.1356 70.833 89.1337ZM29.8075 44.1903L46.2177 62.6518L62.6279 81.7901C64.3975 83.9023 66.892 85.2776 69.6227 85.6465C71.8967 85.994 74.2155 85.4242 76.0695 84.0626C77.9236 82.7009 79.161 80.6588 79.5098 78.385C79.5745 77.9572 79.6088 77.5254 79.6124 77.0927C79.6761 74.3403 78.7105 71.6632 76.9047 69.5851L58.2176 47.78C57.4808 46.8843 57.078 45.7604 57.078 44.6006C57.078 43.4407 57.4808 42.3169 58.2176 41.4211L76.8432 19.5955C78.649 17.5174 79.6145 14.8403 79.5509 12.0879C79.5455 10.9484 79.3157 9.82116 78.8747 8.77049C78.4337 7.71982 77.79 6.7663 76.9805 5.96438C76.171 5.16247 75.2114 4.52786 74.1566 4.09678C73.1018 3.66571 71.9724 3.44662 70.833 3.45202C70.4003 3.45561 69.9685 3.48988 69.5407 3.55459C66.8068 3.91383 64.3089 5.29093 62.5458 7.41098L29.8075 44.1903Z" fill="#DCDDDD"/>
<path d="M14.6093 89.134C11.406 89.1343 8.33139 87.8731 6.051 85.6235C3.77061 83.3738 2.46786 80.3166 2.42472 77.1136C2.32065 73.5144 3.57259 70.0075 5.9324 67.288L24.6195 45.5445C24.8275 45.27 24.94 44.935 24.94 44.5906C24.94 44.2462 24.8275 43.9113 24.6195 43.6368L5.91189 21.8317C3.5586 19.1071 2.30123 15.6055 2.3837 12.0062C2.41381 10.2783 2.80748 8.57607 3.53907 7.0104C4.27065 5.44474 5.32376 4.05069 6.62983 2.91901C9.42072 0.736367 12.9627 -0.251646 16.4804 0.171246C19.9981 0.594138 23.2049 2.39348 25.399 5.17541L43.5322 25.401L41.0297 27.6779L22.8349 7.43181C21.2285 5.32963 18.8551 3.94889 16.2337 3.59142C13.6122 3.23395 10.9558 3.92882 8.84521 5.52413C7.9025 6.34473 7.1445 7.35588 6.62119 8.49088C6.09789 9.62588 5.82118 10.8589 5.80932 12.1087C5.74567 14.8611 6.71119 17.5382 8.517 19.6164L27.1631 41.4214C27.8983 42.3139 28.3003 43.4343 28.3003 44.5906C28.3003 45.747 27.8983 46.8673 27.1631 47.7598L8.53752 69.5854C6.7317 71.6635 5.76618 74.3407 5.82984 77.093C5.84555 78.3442 6.12604 79.5778 6.65284 80.7127C7.17963 81.8476 7.94079 82.8581 8.88623 83.6776C10.9897 85.2676 13.6364 85.9615 16.2494 85.608C18.8623 85.2544 21.2296 83.8822 22.8349 81.7905L41.0297 60.6829L43.6143 62.8982L25.44 84.0058C24.1105 85.5902 22.4545 86.8687 20.5852 87.7538C18.7159 88.6389 16.6774 89.1097 14.6093 89.134V89.134Z" fill="#DCDDDD"/>
<path d="M68.6391 89.1134C66.5745 89.0861 64.54 88.6139 62.6744 87.7289C60.8089 86.8439 59.1561 85.567 57.8289 83.9852L41.4187 64.8673L23.9829 45.2982C23.6975 44.9878 23.5391 44.5814 23.5391 44.1597C23.5391 43.738 23.6975 43.3317 23.9829 43.0213L57.8084 5.13427C60.1179 2.38281 63.3749 0.596966 66.9366 0.129163C68.5128 -0.10299 70.1194 -0.0216174 71.6642 0.368612C73.2089 0.758841 74.6614 1.45025 75.9383 2.40316C77.2152 3.35607 78.2914 4.55173 79.1051 5.92155C79.9188 7.29136 80.454 8.80837 80.6801 10.3855C80.7626 10.9217 80.8037 11.4635 80.8032 12.006C80.9016 15.6079 79.6422 19.1151 77.275 21.8316L58.6494 43.6162C58.4414 43.8907 58.3289 44.2256 58.3289 44.57C58.3289 44.9144 58.4414 45.2493 58.6494 45.5238L77.275 67.3289C79.647 70.0506 80.9068 73.5661 80.8032 77.175C80.7924 78.7535 80.4709 80.3145 79.8568 81.7688C79.2428 83.2231 78.3483 84.5422 77.2245 85.6508C76.1007 86.7594 74.7695 87.6357 73.307 88.2299C71.8444 88.824 70.2792 89.1242 68.7006 89.1134V89.1134H68.6391ZM27.6136 44.17L44.0238 62.6315L60.434 81.7698C62.0493 83.8552 64.421 85.2204 67.0355 85.5698C69.6501 85.9192 72.297 85.2246 74.4032 83.6365C75.3383 82.814 76.0914 81.8053 76.6142 80.675C77.137 79.5447 77.4179 78.3176 77.4391 77.0724C77.5027 74.32 76.5372 71.6429 74.7314 69.5648L56.0648 47.7392C55.3296 46.8467 54.9276 45.7263 54.9276 44.57C54.9276 43.4137 55.3296 42.2933 56.0648 41.4008L74.6904 19.5752C76.4975 17.4992 77.4569 14.8189 77.3775 12.0676C77.3802 10.9327 77.1587 9.80855 76.7257 8.75957C76.2926 7.7106 75.6566 6.75752 74.8542 5.95506C74.0517 5.15261 73.0986 4.5166 72.0497 4.08357C71.0007 3.65053 69.8765 3.42901 68.7417 3.43171C68.2814 3.42504 67.8215 3.45936 67.3673 3.53428C64.6444 3.89507 62.1558 5.2638 60.393 7.37016L27.6136 44.17Z" fill="#FC0404"/>
<path d="M12.3115 89.1338C9.36162 89.1568 6.50395 88.107 4.27046 86.18C1.68117 83.7634 0.152561 80.421 0.0180636 76.8818C-0.116434 73.3426 1.1541 69.8938 3.55252 67.2877L22.1781 45.4622C22.3861 45.1877 22.4986 44.8527 22.4986 44.5083C22.4986 44.164 22.3861 43.829 22.1781 43.5545L3.532 21.8315C1.17872 19.1069 -0.078656 15.6052 0.00381432 12.0059C0.0339312 10.278 0.427596 8.57585 1.15918 7.01018C1.89077 5.44452 2.94388 4.05047 4.24995 2.91879C5.56352 1.80497 7.09828 0.982268 8.75303 0.504936C10.4078 0.0276038 12.1449 -0.0935139 13.8499 0.14957C17.4243 0.628255 20.6927 2.41967 23.0191 5.17519L41.1524 25.4007L38.6088 27.6777L20.5165 7.43159C18.7316 5.29228 16.2034 3.90731 13.4397 3.55468C12.2067 3.37995 10.9506 3.46953 9.75485 3.81746C8.55912 4.1654 7.4511 4.76374 6.50435 5.57274C5.5576 6.38175 4.79379 7.38291 4.26364 8.50975C3.73349 9.63659 3.44913 10.8633 3.42944 12.1085C3.37343 14.8633 4.34613 17.54 6.15763 19.6162L24.8037 41.4212C25.5389 42.3137 25.9409 43.4341 25.9409 44.5904C25.9409 45.7467 25.5389 46.8671 24.8037 47.7596L6.15763 69.5852C4.34055 71.5029 3.35708 74.0623 3.42244 76.7033C3.48779 79.3443 4.59664 81.8519 6.50635 83.6774C8.6098 85.2674 11.2565 85.9613 13.8695 85.6077C16.4825 85.2542 18.8497 83.882 20.455 81.7902L38.5883 60.6826L41.1729 62.898L23.0601 84.0056C21.7397 85.5796 20.0968 86.8519 18.2425 87.7366C16.3882 88.6213 14.3657 89.0977 12.3115 89.1338Z" fill="#FC0404"/>
<path d="M100.641 68.9904V89.1339H95.6152V31.2265H116.477C119.445 31.1438 122.396 31.6963 125.133 32.847C127.368 33.8162 129.348 35.2907 130.918 37.1546C132.384 38.9302 133.467 40.9907 134.097 43.2059C134.769 45.4484 135.108 47.7776 135.102 50.1187C135.128 52.6632 134.79 55.1983 134.097 57.6469C133.508 59.837 132.451 61.8735 131 63.6161C129.416 65.4222 127.397 66.7922 125.133 67.5955C122.333 68.6009 119.369 69.074 116.395 68.9904H100.641ZM116.559 64.2725C118.42 64.3112 120.277 64.0903 122.077 63.6161C123.674 63.2068 125.147 62.4108 126.364 61.2981C127.659 60.0864 128.644 58.5808 129.236 56.9084C129.958 54.7268 130.298 52.4367 130.241 50.1392C130.389 48.224 130.151 46.2986 129.541 44.477C128.932 42.6554 127.963 40.9746 126.692 39.5341C125.439 38.3176 123.949 37.3713 122.316 36.7538C120.682 36.1364 118.939 35.8609 117.195 35.9444H100.784V64.2725H116.559Z" fill="#75D13C"/>
<path d="M147.018 31.2263V84.5594H175.736V89.2158H141.992V31.2263H147.018Z" fill="#75D13C"/>
<path d="M178.567 89.1338L197.337 31.2263H208.167L226.957 89.1338H221.295L217.193 75.8825H188.475L184.249 89.1338H178.567ZM201.131 35.9442L189.952 71.1441H215.695L204.803 35.9442H201.131Z" fill="#75D13C"/>
<path d="M269.171 84.4158V31.2263H274.196V89.1338H264.617L240.002 35.9442H238.135V89.1338H233.109V31.2263H242.935L267.55 84.4158H269.171Z" fill="#75D13C"/>
<path d="M297.13 35.9442H279.489V31.2263H320.002V35.9442H302.299V89.1338H297.13V35.9442Z" fill="#75D13C"/>
<path d="M110.579 0.888889H98.124V2.18182H108.971C108.981 3.51515 108.981 5.10101 108.496 7.29293H96V8.58586H103.547V11.899H97.7322V13.2121H109.074V17.9596H110.703V11.899H105.156V8.58586H112.786V7.29293H110.125C110.579 5.13131 110.579 3.51515 110.579 2.18182V0.888889Z" fill="#1D1D1F"/>
<path d="M129.901 0H128.313V7.31313H125.674V0.40404H124.148V17.0303H125.674V8.66667H128.313V17.9596H129.901V0ZM115.178 13.3131H116.312C118.333 13.3131 120.436 13.1818 122.993 12.7273L122.787 11.3131C120.56 11.7576 118.601 11.8889 116.786 11.899V2.20202H115.178V13.3131Z" fill="#1D1D1F"/>
<path d="M139.449 9.47475H137.861V12.8485C135.953 12.9091 134.139 12.9192 132.602 12.9293L132.829 14.2424C136.129 14.2525 140.634 14.2222 144.831 13.4747L144.707 12.303C143.016 12.5556 141.222 12.697 139.449 12.7879V9.47475ZM133.159 8.84848L133.943 10.0606C136.149 9.40404 137.861 7.9697 138.655 6.05051C139.48 7.86869 141.212 9.25253 143.408 9.89899L144.171 8.64646C141.459 7.88889 139.5 5.9899 139.449 3.67677H143.758V2.36364H139.449V0.141414H137.861V2.36364H133.613V3.67677H137.82C137.778 6.09091 135.871 8.06061 133.159 8.84848ZM145.924 18H147.532V0H145.924V18Z" fill="#1D1D1F"/>
<path d="M166.421 0H164.874V7.23232H162.173V0.40404H160.688V17.0303H162.173V8.54545H164.874V17.9596H166.421V0ZM151.429 13.5152H152.605C155.42 13.5051 157.286 13.4343 159.492 12.9899L159.348 11.6566C157.306 12.0606 155.564 12.1515 153.038 12.1616V3.51515H158.296V2.20202H151.429V13.5152Z" fill="#1D1D1F"/>
<path d="M180.794 2.60606V0.888889H179.144V2.60606C179.144 5.32323 177.226 7.80808 174.484 8.80808L175.329 10.0606C177.484 9.24242 179.175 7.56566 179.979 5.43434C180.804 7.42424 182.485 8.9697 184.609 9.73737L185.434 8.48485C182.712 7.55556 180.773 5.22222 180.794 2.60606ZM177.103 13.0303H187.826V17.9596H189.434V11.7172H177.103V13.0303ZM187.826 10.8283H189.434V0H187.826V10.8283Z" fill="#1D1D1F"/>
<path d="M209.251 7.59596H192.548V8.88889H200.075V10.6667H194.569V11.899H205.519V13.4949H194.61V17.7576H207.663V16.5051H196.218V14.6869H207.106V10.6667H201.683V8.88889H209.251V7.59596ZM194.713 6.08081H207.086V0.606061H194.713V6.08081ZM196.322 4.80808V1.87879H205.477V4.80808H196.322Z" fill="#1D1D1F"/>
<path d="M217.005 10.2626H215.417V14.3434H210.798V15.6566H227.583V14.3434H222.943V10.2626H221.335V14.3434H217.005V10.2626ZM211.416 8.56566L212.097 9.87879C214.922 9.34343 217.891 7.53535 219.098 5.0202C220.294 7.54545 223.263 9.32323 226.119 9.87879L226.779 8.56566C223.572 8.05051 219.943 5.52525 219.933 2.58586V1.21212H218.242V2.58586C218.231 5.52525 214.623 8.0202 211.416 8.56566Z" fill="#1D1D1F"/>
<path d="M239.791 1.55556H229.872V2.88889H231.707V8.37374C230.872 8.38384 230.078 8.38384 229.357 8.38384L229.563 9.71717C232.666 9.70707 237.059 9.64646 240.822 9.07071L240.698 7.85859C239.811 7.9697 238.884 8.06061 237.935 8.13131V2.88889H239.791V1.55556ZM231.914 14.6465C231.903 16.7374 234.244 17.9192 238.1 17.9192C241.956 17.9192 244.307 16.7374 244.307 14.6465C244.307 12.596 241.956 11.4242 238.1 11.4141C234.244 11.4242 231.903 12.596 231.914 14.6465ZM233.275 8.34343V2.88889H236.368V8.22222C235.326 8.28283 234.285 8.32323 233.275 8.34343ZM233.501 14.6465C233.512 13.4242 235.244 12.6768 238.1 12.6869C240.946 12.6768 242.688 13.4242 242.678 14.6465C242.688 15.9192 240.946 16.6667 238.1 16.6667C235.244 16.6667 233.512 15.9192 233.501 14.6465ZM242.575 11.0303H244.183V0.020202H242.575V11.0303Z" fill="#1D1D1F"/>
<path d="M264 7.85859H256.411V6.08081H261.835V0.606061H249.462V6.08081H254.824V7.85859H247.297V9.17172H264V7.85859ZM249.318 11.899H260.268V13.4949H249.359V17.7576H262.412V16.5051H250.967V14.6869H261.855V10.6667H249.318V11.899ZM251.071 4.80808V1.87879H260.226V4.80808H251.071Z" fill="#1D1D1F"/>
</svg>
